<?xml version="1.0"?>
<svg xmlns="http://www.w3.org/2000/svg" xmlns:xlink="http://www.w3.org/1999/xlink" xmlns:svgjs="http://svgjs.com/svgjs" version="1.1" width="512" height="512" x="0" y="0" viewBox="0 0 512 512" style="enable-background:new 0 0 512 512" xml:space="preserve" class=""><g><link type="text/css" rel="stylesheet" id="dark-mode-general-link"/><link type="text/css" rel="stylesheet" id="dark-mode-custom-link"/><style lang="en" type="text/css" id="dark-mode-custom-style"/><g xmlns="http://www.w3.org/2000/svg"><path d="m223.824 250.617c5.552-6.259 12.499-10.98 20.164-13.879 3.055-7.697 7.226-14.936 12.37-21.445-.053-1.05-.079-2.101-.079-3.151 0-32.995 25.781-60.082 58.256-62.175 5.522-5.091 11.678-9.386 18.259-12.842-14.444-77.925-82.913-137.125-164.957-137.125-92.51 0-167.772 75.262-167.772 167.771s75.262 167.771 167.771 167.771c16.32 0 32.518-2.392 48.035-7.016l-4.555-37.898c-1.743-14.5 2.816-29.084 12.508-40.011zm-101.92-7.905v-149.518l130.194 74.759z" fill="#6495ed" data-original="#000000" style="" class=""/><path d="m151.904 145.014v45.878l39.948-22.939z" fill="#6495ed" data-original="#000000" style="" class=""/><path d="m277.274 235.75c8.423 2.637 15.918 7.393 21.851 13.65 9.32-9.829 22.485-15.977 37.066-15.977h2.816c14.513 0 27.622 6.091 36.935 15.838 9.312-9.748 22.421-15.838 36.935-15.838h2.816c14.581 0 27.746 6.148 37.066 15.977 4.618-4.87 10.181-8.832 16.391-11.595-2.199-4.748-11.042-13.16-11.042-13.16s1.641-6.932 1.646-12.503c.02-18.365-14.94-33.306-33.305-33.306-.522 0-8.063.338-8.063.338l-4.421-4.771c-10.677-11.523-25.784-18.132-41.449-18.132s-30.772 6.609-41.448 18.132l-4.424 4.775s-7.541-.342-8.061-.342c-18.364 0-33.164 14.941-33.305 33.306-.046 6.028 1.646 12.503 1.646 12.503s-6.506 5.987-9.65 11.105z" fill="#6495ed" data-original="#000000" style="" class=""/><path d="m262.058 262.423c-13.255 0-23.531 11.585-21.949 24.745l27.026 224.832h17.03v-227.47c0-12.209-9.898-22.107-22.107-22.107z" fill="#6495ed" data-original="#000000" style="" class=""/><path d="m339.007 262.423h-2.817c-12.209 0-22.107 9.898-22.107 22.107v227.47h47.03v-227.47c.001-12.209-9.897-22.107-22.106-22.107z" fill="#6495ed" data-original="#000000" style="" class=""/><path d="m415.692 262.423h-2.817c-12.209 0-22.107 9.898-22.107 22.107v227.47h47.03v-227.47c.001-12.209-9.897-22.107-22.106-22.107z" fill="#6495ed" data-original="#000000" style="" class=""/><path d="m489.825 262.423c-12.209 0-22.107 9.898-22.107 22.107v227.47h17.03l27.026-224.831c1.582-13.161-8.694-24.746-21.949-24.746z" fill="#6495ed" data-original="#000000" style="" class=""/></g></g></svg>
